<svg width="46" height="54" viewBox="0 0 46 54" fill="none" xmlns="http://www.w3.org/2000/svg">
<g filter="url(#filter0_d_2_307)">
<path fill-rule="evenodd" clip-rule="evenodd" d="M11.1361 0.710882C10.305 0.999621 9.69525 1.63213 9.44424 2.46595C9.37154 2.70756 9.31722 3.25858 9.31722 3.75467V4.62124L7.65296 4.65035C5.74984 4.68364 5.4619 4.76246 4.79042 5.43393C4.05681 6.16754 3.87796 7.03535 4.07386 8.91176C4.41088 12.1407 5.51258 14.6366 7.37727 16.3956C8.34778 17.3111 9.5322 18.0205 10.6511 18.3563C11.0131 18.465 11.0781 18.528 11.304 18.9897C12.0324 20.4785 13.2682 22.2882 14.4651 23.6187C15.1457 24.3753 16.4443 25.5335 17.4388 26.271C18.3377 26.9376 18.5715 27.177 18.8291 27.6951C19.0309 28.1011 19.0372 28.1861 19.0643 30.8698L19.0921 33.6273L18.4266 33.9562C17.3691 34.4789 16.7137 35.351 16.4977 36.5229L16.3912 37.1011L15.6279 37.1395C14.7099 37.1856 14.1971 37.3898 13.6665 37.9204C12.9218 38.6651 12.9156 38.6993 12.8857 42.2413L12.8592 45.364L13.1224 45.6586L13.3857 45.9532L22.5769 45.9767L31.7682 46L32.0594 45.7398L32.3506 45.4795V42.2991C32.3506 39.2323 32.3438 39.1039 32.1599 38.706C32.055 38.479 31.8013 38.1255 31.5962 37.9204C31.0665 37.3907 30.5524 37.1856 29.6396 37.1397L28.8812 37.1016L28.7707 36.5181C28.5453 35.3302 27.8414 34.4277 26.7308 33.9027L26.1705 33.6378L26.1983 30.8751C26.2254 28.1858 26.2317 28.1012 26.4336 27.6951C26.6911 27.1771 26.9248 26.9376 27.8238 26.2708C30.4049 24.3562 32.431 21.9816 33.8321 19.2289C34.1946 18.5167 34.2355 18.4712 34.614 18.3566C35.7459 18.014 36.9939 17.2626 37.9267 16.3622C39.7766 14.5765 40.8545 12.1148 41.1888 8.91176C41.3847 7.03535 41.2059 6.16754 40.4723 5.43393C39.8015 4.76317 39.5118 4.68364 37.6189 4.65044L35.9637 4.6215L35.929 3.58531C35.9019 2.77333 35.8539 2.45991 35.707 2.13656C35.4684 1.61118 34.8907 1.03211 34.361 0.787217L33.9483 0.59647L22.7645 0.576499C12.3376 0.557859 11.5505 0.566912 11.1361 0.710882ZM33.8797 2.61791L34.1259 2.86413L34.1235 7.54413C34.1208 12.6824 34.1045 12.8917 33.5418 15.0112C33.0774 16.7602 32.1735 18.7803 31.2141 20.2126C30.1037 21.8706 28.4406 23.5946 26.7109 24.8808C25.6331 25.6823 25.2644 26.0726 24.9003 26.7975C24.4392 27.7156 24.4066 28.0268 24.4066 31.5024V34.7221L24.6506 34.9908C24.8391 35.1983 25.0163 35.281 25.4273 35.3537C26.2883 35.506 26.8937 36.0487 27.0285 36.7887L27.0892 37.1215H22.6313H18.1735L18.2341 36.7887C18.3686 36.0505 19.0117 35.4664 19.7916 35.3741C20.1291 35.3341 20.3415 35.2485 20.5376 35.0734L20.8117 34.8285L20.8371 31.5737C20.8646 28.0411 20.8346 27.7377 20.3639 26.8007C19.9982 26.0724 19.6307 25.6831 18.5518 24.8808C16.8211 23.5938 15.1532 21.8645 14.0494 20.2126C13.1071 18.8025 12.1745 16.7208 11.7232 15.0201C11.1579 12.8905 11.1419 12.6846 11.1392 7.5515C11.1369 3.00198 11.1415 2.87354 11.3143 2.68137C11.412 2.57273 11.5717 2.45095 11.6694 2.41065C11.767 2.37044 16.7489 2.34515 22.7402 2.35455L33.6337 2.37169L33.8797 2.61791ZM9.31722 8.7914C9.31722 11.9712 9.51347 13.8234 10.0367 15.5834C10.1361 15.9176 10.1999 16.2084 10.1786 16.2298C10.0939 16.3145 8.79611 15.3588 8.32452 14.8644C6.76721 13.2317 5.85866 10.7047 5.82315 7.90743C5.81259 7.07885 5.83283 6.9394 5.98869 6.76525C6.269 6.45202 6.4356 6.42193 7.91924 6.41589L9.31722 6.4103V8.7914ZM39.2056 6.70179C39.4455 6.94278 39.4512 6.97216 39.4395 7.90006C39.4043 10.7045 38.4972 13.2299 36.9382 14.8644C36.4666 15.3588 35.1688 16.3145 35.0841 16.2298C35.0627 16.2084 35.1265 15.9176 35.226 15.5834C35.7495 13.8224 35.9455 11.9713 35.9455 8.78554V6.39858L37.4526 6.42663L38.9598 6.45468L39.2056 6.70179ZM30.3294 39.1871L30.5754 39.433L30.6017 41.8277L30.628 44.2224H22.6313H14.6347L14.661 41.835C14.6857 39.5928 14.6981 39.4356 14.8648 39.2505C14.9624 39.142 15.1222 39.0203 15.2198 38.9798C15.3175 38.9394 18.7016 38.9142 22.7403 38.9237L30.0832 38.9411L30.3294 39.1871ZM18.7603 40.7589C18.4809 40.8718 18.1933 41.2833 18.1933 41.5701C18.1933 41.7241 18.2946 41.9364 18.4521 42.1129L18.711 42.4028L20.7979 42.4295L22.8848 42.4562L23.1777 42.1945C23.421 41.977 23.4706 41.8697 23.4706 41.5596C23.4706 41.2507 23.4209 41.142 23.1826 40.9292L22.8948 40.672L20.9213 40.6775C19.8358 40.6807 18.8634 40.7173 18.7603 40.7589ZM25.8612 40.7589C25.5817 40.8718 25.2942 41.2833 25.2942 41.5701C25.2942 41.9254 25.7021 42.3518 26.103 42.4155C26.3733 42.4584 26.4706 42.4245 26.7223 42.1996C26.9717 41.9768 27.021 41.8712 27.021 41.5596C27.021 41.2507 26.9713 41.142 26.7331 40.9292C26.4415 40.6686 26.201 40.6216 25.8612 40.7589Z" fill="white"/>
<path fill-rule="evenodd" clip-rule="evenodd" d="M22.4623 5.94222C21.9954 6.0727 21.8944 6.21773 21.0264 8.00466C20.54 9.00597 20.1284 9.83882 20.1117 9.8555C20.0951 9.87219 19.2691 10.0012 18.2762 10.1424C17.2833 10.2835 16.3255 10.4404 16.1478 10.4911C15.754 10.6035 15.5389 10.9084 15.5389 11.3548C15.5389 11.6703 15.6266 11.7772 17.041 13.1853L18.5432 14.6806L18.2012 16.6878C17.8962 18.4782 17.8721 18.7258 17.9786 18.9806C18.0443 19.1378 18.1786 19.3094 18.2772 19.3622C18.7043 19.5908 19.0516 19.4783 20.8412 18.5317L22.5926 17.6053L24.3793 18.5317C26.3488 19.5529 26.6453 19.6324 27.0339 19.2438C27.1517 19.1259 27.2711 18.9363 27.2991 18.8222C27.3273 18.7081 27.1971 17.7276 27.0101 16.6431L26.6701 14.6714L28.1532 13.1902C29.1035 12.2411 29.6522 11.6262 29.6804 11.4784C29.7491 11.1192 29.5242 10.69 29.1908 10.5442C29.0294 10.4736 28.1585 10.3121 27.2554 10.1853C26.3522 10.0585 25.5019 9.93255 25.3656 9.90548C25.1447 9.86154 25.0187 9.65757 24.1929 8.00733C23.6839 6.9904 23.2248 6.13208 23.1727 6.09977C23.0011 5.9937 22.5979 5.90432 22.4623 5.94222ZM23.2386 10.1185C23.5569 10.7368 23.9151 11.3102 24.0375 11.3976C24.2188 11.527 26.2387 11.9036 26.8162 11.9157C26.8745 11.9169 26.4529 12.3712 25.8793 12.9253C25.2816 13.5026 24.9915 13.757 24.8866 14.0729C24.7795 14.3954 24.8654 14.7819 25.0139 15.6414C25.1109 16.2028 25.1905 16.7311 25.1908 16.8155C25.1913 16.9373 24.9482 16.8416 24.0078 16.3495C23.3567 16.0089 22.7127 15.7302 22.5764 15.7302C22.4402 15.7302 21.7945 16.0125 21.1416 16.3574C20.4887 16.7024 19.9545 16.9431 19.9545 16.8924C19.9545 16.8417 20.0534 16.2364 20.1743 15.5473C20.3664 14.4517 20.3791 14.259 20.2751 14.0136C20.2097 13.8593 19.749 13.3393 19.2513 12.858C18.7537 12.3767 18.3616 11.9679 18.38 11.9495C18.3983 11.9311 18.9898 11.8326 19.6943 11.7305C20.3988 11.6286 21.061 11.49 21.1657 11.4226C21.2705 11.3553 21.6209 10.7535 21.9445 10.0853C22.2681 9.41708 22.5618 8.89908 22.5973 8.93405C22.6328 8.96911 22.9213 9.50212 23.2386 10.1185Z" fill="#DB3138"/>
<circle cx="26.279" cy="41.6484" r="0.976368" fill="#DB3138"/>
</g>
<defs>
<filter id="filter0_d_2_307" x="0" y="0.569336" width="45.2627" height="53.4307" filterUnits="userSpaceOnUse" color-interpolation-filters="sRGB">
<feFlood flood-opacity="0" result="BackgroundImageFix"/>
<feColorMatrix in="SourceAlpha" type="matrix" values="0 0 0 0 0 0 0 0 0 0 0 0 0 0 0 0 0 0 127 0" result="hardAlpha"/>
<feOffset dy="4"/>
<feGaussianBlur stdDeviation="2"/>
<feComposite in2="hardAlpha" operator="out"/>
<feColorMatrix type="matrix" values="0 0 0 0 0 0 0 0 0 0 0 0 0 0 0 0 0 0 0.25 0"/>
<feBlend mode="normal" in2="BackgroundImageFix" result="effect1_dropShadow_2_307"/>
<feBlend mode="normal" in="SourceGraphic" in2="effect1_dropShadow_2_307" result="shape"/>
</filter>
</defs>
</svg>
